# xmcd
#
# Track frame offsets:
#	150
#	15216
#	28682
#	42386
#	55283
#	72175
#	90211
#	105000
#	116632
#	132510
#	147695
#	159387
#
# Disc length: 2276 seconds
#
# Revision: 1
# Processed by: cddbd v1.5.2PL0 Copyright (c) Steve Scherf et al.
# Submitted via: audiograbber 1.83.01
#
DISCID=9608e20c
DTITLE=Kikki Danielsson - Postcard From A Painted Lady
DYEAR=2015
DGENRE=Country
TTITLE0=Sideways In The Driving Rain
TTITLE1=Country Fable
TTITLE2=Good Life
TTITLE3=Postcard From A Painted Lady
TTITLE4=Brimstone Heart
TTITLE5=Not About Me Anymore
TTITLE6=24-7
TTITLE7=Hard Country
TTITLE8=The Bravest Song
TTITLE9=Comfort Me
TTITLE10=Be The One
TTITLE11=Stay Away From The Blue Bayou
EXTD=
EXTT0=
EXTT1=
EXTT2=
EXTT3=
EXTT4=
EXTT5=
EXTT6=
EXTT7=
EXTT8=
EXTT9=
EXTT10=
EXTT11=
PLAYORDER=
